<?xml version="1.0" encoding="utf-8"?>
<svg viewBox="0 0 1630.9 500" xmlns="http://www.w3.org/2000/svg">
    <g id="desktop" transform="matrix(20.647380828857, 0, 0, 20.595731735229, 40.06071472168, -2205.649658203125)">
        <g>
            <path d="M 35.248 116.731 C 34.648 119.631 34.248 123.031 34.048 124.531 L 33.848 124.531 C 33.648 123.031 33.248 119.631 32.648 116.831 L 31.148 109.831 L 26.648 109.831 L 26.648 128.731 L 29.448 128.731 L 29.448 113.131 L 29.748 114.631 L 32.648 128.731 L 35.448 128.731 L 38.248 114.631 L 38.448 113.131 L 38.448 128.631 L 41.248 128.631 L 41.248 109.831 L 36.648 109.831 C 36.748 109.831 35.248 116.731 35.248 116.731 L 35.248 116.731 Z" style="fill: rgb(255, 255, 255);" />
            <path d="M 48.848 125.831 C 48.548 126.331 48.048 126.731 47.448 126.731 C 46.848 126.731 46.548 126.231 46.548 125.031 L 46.548 114.931 L 43.348 114.931 L 43.348 125.131 C 43.348 127.631 44.248 128.831 46.148 128.831 C 47.448 128.831 48.448 128.231 49.248 126.931 L 49.348 126.931 L 49.648 128.631 L 52.148 128.631 L 52.148 114.931 L 48.848 114.931 L 48.848 125.831 Z" style="fill: rgb(255, 255, 255);" />
            <path d="M 58.248 120.331 C 57.248 119.631 56.548 119.131 56.548 118.031 C 56.548 117.231 56.948 116.831 57.748 116.831 C 58.648 116.831 58.948 117.431 58.948 119.531 L 61.648 119.431 C 61.848 116.131 60.748 114.731 57.748 114.731 C 55.048 114.731 53.648 115.931 53.648 118.331 C 53.648 120.531 54.748 121.531 56.548 122.931 C 58.148 124.131 59.048 124.731 59.048 125.731 C 59.048 126.431 58.548 126.931 57.748 126.931 C 56.748 126.931 56.248 126.031 56.348 124.531 L 53.648 124.531 C 53.248 127.431 54.448 129.031 57.548 129.031 C 60.348 129.031 61.748 127.831 61.748 125.331 C 61.948 123.031 60.748 122.131 58.248 120.331 L 58.248 120.331 Z" style="fill: rgb(255, 255, 255);" />
            <path d="M 63.648 114.931 L 66.748 114.931 L 66.748 128.631 L 63.648 128.631 L 63.648 114.931 Z" style="fill: rgb(255, 255, 255);" />
            <path d="M 65.248 109.431 C 64.048 109.431 63.548 109.831 63.548 111.331 C 63.548 112.831 64.148 113.231 65.248 113.231 C 66.448 113.231 66.948 112.831 66.948 111.331 C 66.948 109.931 66.448 109.431 65.248 109.431 Z" style="fill: rgb(255, 255, 255);" />
            <path d="M 77.048 123.731 L 74.248 123.631 C 74.248 126.031 73.948 126.831 73.048 126.831 C 72.148 126.831 71.948 125.931 71.948 123.131 L 71.948 120.431 C 71.948 117.631 72.148 116.831 73.048 116.831 C 73.948 116.831 74.148 117.631 74.148 120.231 L 76.948 120.031 C 77.148 117.931 76.848 116.431 76.048 115.631 C 75.448 115.031 74.448 114.731 73.148 114.731 C 70.048 114.731 68.748 116.331 68.748 120.931 L 68.748 122.831 C 68.748 127.531 69.848 129.031 73.048 129.031 C 74.348 129.031 75.348 128.731 75.948 128.131 C 76.748 127.231 77.048 125.831 77.048 123.731 Z" style="fill: rgb(255, 255, 255);" />
        </g>
    </g>
    <ellipse style="stroke: rgb(255, 255, 255); stroke-width: 0px; fill: rgb(255, 255, 255);" cx="250" cy="250" rx="249.5" ry="249.5" />
    <g transform="matrix(-0.625, 0, 0, -0.625, 500.625, 500.614532470703)">
        <path d="M291.17699,16.364407 L291.17699,232.58607 C322.75736,211.94756 360.46542,199.90508 401.01004,199.90508 C512.0535,199.90508 602.0822,289.93044 602.0822,400.98193 C602.0822,512.03342 512.0535,602.05944 401.01004,602.05944 C289.95855,602.05944 199.93052,512.03342 199.93052,400.98193 C199.93052,397.40962 200.03228,393.86141 200.21236,390.33329 L199.93052,55.240696 C80.993974,124.56461 1,253.39195 1,400.98193 C1,621.90262 180.09738,801 401.01807,801 C621.93609,801 801,621.90262 801,400.98193 C801,180.06391 621.93609,0.96653089 401.01807,0.96653089 C362.90766,0.96653089 326.09469,6.4093453 291.17699,16.364407 Z" id="Circle" style="fill: rgb(255, 0, 0);" />
        <path d="M 336.046 495.669 C 319.247 484.846 322.966 469.489 322.966 469.489 L 322.966 330.36 C 322.966 330.36 323.612 312.12 338.353 305.182 C 353.093 298.245 365.256 305.07 379.481 313.946 C 408.612 335.028 458.993 373.508 458.993 373.508 C 458.993 373.508 504.872 397.925 458.993 430.074 C 413.114 462.223 373.177 491.725 373.177 491.725 C 373.177 491.725 352.845 506.491 336.046 495.669 Z" id="Triangle" transform="matrix(-1, 0, 0, -1, 801.999420166016, 801.966247558594)" style="fill: rgb(255, 0, 0);" />
    </g>
</svg>