<?xml version="1.0" encoding="utf-8"?>
<!-- Generator: Adobe Illustrator 14.0.0, SVG Export Plug-In . SVG Version: 6.00 Build 43363)  -->
<!DOCTYPE svg PUBLIC "-//W3C//DTD SVG 1.1//EN" "http://www.w3.org/Graphics/SVG/1.1/DTD/svg11.dtd">
<svg version="1.1" id="Layer_1" xmlns="http://www.w3.org/2000/svg" xmlns:xlink="http://www.w3.org/1999/xlink" x="0px" y="0px"
	 width="101.75px" height="75.086px" viewBox="0 0 101.75 75.086" enable-background="new 0 0 101.75 75.086" xml:space="preserve">
<g>
	<path fill="#ED5A48" d="M94.615,7.336c-3.72-3.853-8.666-5.975-13.926-5.975c-5.262,0-10.208,2.122-13.928,5.975l-13.826,14.32
		l5.971,6.182L72.729,13.52c2.127-2.202,4.951-3.416,7.959-3.416c3.004,0,5.832,1.214,7.957,3.416
		c4.388,4.543,4.386,11.938-0.002,16.482L72.702,46.518c1.063,4.015,1.083,8.262,0.071,12.292l21.843-22.623
		c3.718-3.852,5.768-8.975,5.768-14.425C100.383,16.312,98.333,11.189,94.615,7.336z"/>
	<path fill="#ED5A48" d="M39.951,56.247c-0.326-1.095-0.498-2.25-0.498-3.433c0-3.115,1.173-6.041,3.299-8.244l5.708-5.909
		l-5.97-6.185L38.507,36.6c-0.512,0.658-1.051,1.298-1.636,1.904c-0.345,0.357-0.714,0.681-1.078,1.012
		c-3.083,3.7-4.779,8.36-4.781,13.298c0,2.876,0.587,5.654,1.674,8.21c1.095-2.811,3.749-4.799,6.85-4.799
		C39.674,56.225,39.812,56.241,39.951,56.247z"/>
	<path fill="#ED5A48" d="M34.632,7.338c-3.719-3.855-8.665-5.977-13.926-5.977c-5.26,0-10.207,2.121-13.925,5.973
		c-7.679,7.954-7.679,20.897,0,28.852c3.718,3.854,8.667,5.975,13.925,5.975c5.262,0,10.207-2.123,13.926-5.975
		c2.889-2.99,4.769-6.747,5.467-10.825L58.643,44.57c4.388,4.545,4.388,11.94,0,16.484c-2.124,2.204-4.95,3.415-7.955,3.415
		c-2.999,0-5.82-1.208-7.943-3.401c-0.776-0.949-1.919-1.564-3.21-1.564c-2.332,0-4.222,1.958-4.222,4.372
		c0,1.333,0.54,2.558,1.446,3.36c3.72,3.854,8.666,5.975,13.926,5.975h0.002c5.259,0,10.206-2.121,13.925-5.975
		c7.681-7.953,7.681-20.898,0-28.85L34.632,7.338z M28.664,30.002c-2.125,2.203-4.95,3.416-7.958,3.416
		c-3.005,0-5.831-1.212-7.955-3.416c-4.39-4.544-4.39-11.939,0-16.483c2.125-2.203,4.949-3.415,7.955-3.415
		c3.007,0,5.833,1.212,7.958,3.416c2.126,2.202,3.296,5.127,3.296,8.241C31.959,24.874,30.79,27.8,28.664,30.002z"/>
</g>
</svg>
