<?xml version="1.0" encoding="utf-8"?>
<svg viewBox="0 0 500 500" xmlns="http://www.w3.org/2000/svg">
  <ellipse style="stroke: rgb(255, 255, 255); stroke-width: 0px; fill: rgb(255, 255, 255);" cx="250" cy="250" rx="249.5" ry="249.5"/>
  <g id="Page-1" stroke="none" stroke-width="1" fill="none" fill-rule="evenodd" transform="matrix(-0.625, 0, 0, -0.625, 500.625, 500.614532470703)">
    <path d="M291.17699,16.364407 L291.17699,232.58607 C322.75736,211.94756 360.46542,199.90508 401.01004,199.90508 C512.0535,199.90508 602.0822,289.93044 602.0822,400.98193 C602.0822,512.03342 512.0535,602.05944 401.01004,602.05944 C289.95855,602.05944 199.93052,512.03342 199.93052,400.98193 C199.93052,397.40962 200.03228,393.86141 200.21236,390.33329 L199.93052,55.240696 C80.993974,124.56461 1,253.39195 1,400.98193 C1,621.90262 180.09738,801 401.01807,801 C621.93609,801 801,621.90262 801,400.98193 C801,180.06391 621.93609,0.96653089 401.01807,0.96653089 C362.90766,0.96653089 326.09469,6.4093453 291.17699,16.364407 Z" id="Circle" style="fill: rgb(255, 0, 0);"/>
    <path d="M 336.046 495.669 C 319.247 484.846 322.966 469.489 322.966 469.489 L 322.966 330.36 C 322.966 330.36 323.612 312.12 338.353 305.182 C 353.093 298.245 365.256 305.07 379.481 313.946 C 408.612 335.028 458.993 373.508 458.993 373.508 C 458.993 373.508 504.872 397.925 458.993 430.074 C 413.114 462.223 373.177 491.725 373.177 491.725 C 373.177 491.725 352.845 506.491 336.046 495.669 Z" id="Triangle" transform="matrix(-1, 0, 0, -1, 801.999420166016, 801.966247558594)" style="fill: rgb(255, 0, 0);"/>
  </g>
</svg>